<?xml version="1.0" encoding="UTF-8" standalone="no"?>
<!-- Created with Inkscape (http://www.inkscape.org/) -->
<svg
   xmlns:ns="http://creativecommons.org/ns#"
   xmlns:dc="http://purl.org/dc/elements/1.1/"
   xmlns:cc="http://web.resource.org/cc/"
   xmlns:rdf="http://www.w3.org/1999/02/22-rdf-syntax-ns#"
   xmlns:svg="http://www.w3.org/2000/svg"
   xmlns="http://www.w3.org/2000/svg"
   xmlns:sodipodi="http://sodipodi.sourceforge.net/DTD/sodipodi-0.dtd"
   xmlns:inkscape="http://www.inkscape.org/namespaces/inkscape"
   width="744.09448819"
   height="1052.3622047"
   id="svg2"
   sodipodi:version="0.32"
   inkscape:version="0.45.1"
   sodipodi:docname="pangolin.svg"
   inkscape:output_extension="org.inkscape.output.svg.inkscape"
   sodipodi:docbase="/home/guest/pango/misc">
  <defs
     id="defs4">
    <inkscape:perspective
       sodipodi:type="inkscape:persp3d"
       inkscape:vp_x="0 : 526.18109 : 1"
       inkscape:vp_y="0 : 1000 : 0"
       inkscape:vp_z="744.09448 : 526.18109 : 1"
       inkscape:persp3d-origin="372.04724 : 350.78739 : 1"
       id="perspective10" />
  </defs>
  <sodipodi:namedview
     id="base"
     pagecolor="#ffffff"
     bordercolor="#666666"
     borderopacity="1.0"
     gridtolerance="10000"
     guidetolerance="10"
     objecttolerance="10"
     inkscape:pageopacity="0.0"
     inkscape:pageshadow="2"
     inkscape:zoom="0.7"
     inkscape:cx="108.82909"
     inkscape:cy="774.35298"
     inkscape:document-units="px"
     inkscape:current-layer="layer1"
     showgrid="false"
     inkscape:window-width="1014"
     inkscape:window-height="654"
     inkscape:window-x="0"
     inkscape:window-y="26" />
  <metadata
     id="metadata7">
    <rdf:RDF>
      <ns:Work
         rdf:about="">
        <dc:format>image/svg+xml</dc:format>
        <dc:type
           rdf:resource="http://purl.org/dc/dcmitype/StillImage" />
      </ns:Work>
      <cc:Work
         rdf:about="">
        <dc:format>image/svg+xml</dc:format>
        <dc:type
           rdf:resource="http://purl.org/dc/dcmitype/StillImage" />
      </cc:Work>
    </rdf:RDF>
  </metadata>
  <g
     inkscape:label="Layer 1"
     inkscape:groupmode="layer"
     id="layer1">
    <path
       style="fill:#fcaf3e"
       d="M 33.807982,446.29738 C 78.694892,472.87558 146.60376,491.69058 190.8125,495.15093 C 235.02124,498.61128 282.95104,488.62763 294.86869,464.92937 C 306.78634,441.23111 280.16534,432.14734 265.85503,416.71689 C 251.54472,401.28644 252.57082,400.38129 253.8036,398.38661 C 255.03638,396.39193 259.99811,384.49354 265.16971,384.49354 C 270.34132,384.49354 285.94243,394.95733 300.00761,404.1704 C 314.07279,413.38347 329.00143,422.83459 342.4983,412.17311 C 356.85695,400.83089 368.75896,368.63607 367.3646,354.08569 C 365.97024,339.5353 353.50524,292.6648 333.05151,289.02868 C 312.59778,285.39256 297.48181,312.11609 273.65548,320.96124 C 249.82915,329.80639 233.67679,338.46475 229.66344,314.6216 C 225.69627,291.05279 255.22037,288.22099 264.72256,278.61293 C 274.22474,269.00487 313.33159,246.69819 311.10386,227.25699 C 306.8998,190.56855 258.86637,224.31712 224.53777,228.86405 C 247.0169,152.1783 397.71707,188.21228 456.69264,200.70385 C 515.6682,213.19542 686.2069,247.08266 575.8225,466.71274 C 465.43811,686.34282 461.24852,492.73128 365.6639,577.62873 C 270.07928,662.52618 76.063929,521.14775 33.807982,446.29738 z "
       id="path2421"
       sodipodi:nodetypes="czzzzzzzzzzzzsczzcc" />
    <path
       style="fill:#f57900"
       d="M 396.41078,311.32787 C 403.91002,290.15476 454.1718,237.15349 431.304,213.88223 C 412.19688,195.04435 351.98737,194.77022 319.76428,202.95618 C 273.3551,212.60073 257.07181,222.3143 220.90021,250.28824 C 213.47999,256.02679 169.48565,284.18602 158.16715,260.2623 C 146.29352,235.1652 171.97819,196.21747 184.91252,170.04327 C 221.21891,116.94948 241.42933,116.40363 299.6228,116.06392 C 357.79039,115.72437 528.16887,171.47899 529.46639,215.97998 C 530.80612,261.92837 430.25549,337.87474 410.03509,361.65615 C 395.26035,355.35895 387.94413,327.20696 396.41078,311.32787 z "
       id="path2423"
       sodipodi:nodetypes="cccszczzcc" />
    <path
       sodipodi:type="arc"
       style="fill:#204a87;fill-rule:evenodd;stroke:#000000;stroke-width:1px;stroke-linecap:butt;stroke-linejoin:miter;stroke-opacity:1"
       id="path2413"
       sodipodi:cx="287.3884"
       sodipodi:cy="179.08531"
       sodipodi:rx="6.5659914"
       sodipodi:ry="5.5558391"
       d="M 293.95439 179.08531 A 6.5659914 5.5558391 0 1 1  280.82241,179.08531 A 6.5659914 5.5558391 0 1 1  293.95439 179.08531 z"
       transform="translate(6,-4)" />
    <path
       style="fill:#ce5c00;stroke:none;stroke-width:1px;stroke-linecap:butt;stroke-linejoin:miter;stroke-opacity:1"
       d="M 359.25152,665.10766 C 206.44738,663.81838 71.204397,607.45556 32.185447,441.42031 C 32.185447,440.88275 35.48107,446.19952 39.509053,450.79092 C 113.84139,538.60729 204.00023,592.3123 321.2609,572.88725 C 355.08959,561.53039 410.63322,539.02933 420.07885,499.47193 C 414.97173,475.36796 377.59518,469.03632 374.84626,443.90435 C 374.84799,438.88393 382.1745,427.54859 385.92328,425.45439 C 412.70195,435.61659 422.98426,453.97396 456.26815,459.39731 C 502.81481,459.38825 552.99069,410.49299 566.2244,367.81115 C 578.91442,333.78963 557.27441,254.59279 510.3674,281.59163 C 499.71523,287.91995 489.90793,297.70402 467.14981,324.70678 C 457.09178,334.04331 429.88592,372.13054 410.98238,361.4977 C 404.77498,357.27297 403.40844,354.40433 403.48674,345.76264 C 403.60833,332.34697 409.89982,321.12497 439.26368,281.94819 C 454.67696,258.4 496.7249,233.59128 478.74662,200.2704 C 460.76834,166.94952 405.35086,148.47605 361.96021,144.8774 C 304.81185,140.99748 275.42353,159.53248 233.56874,192.60737 C 216.22826,206.31033 193.65105,215.63093 183.95737,207.34041 C 175.06287,199.73337 176.34375,178.04758 192.3956,158.80386 C 244.49542,96.344116 315.32406,55.400383 370.02235,55.12134 C 600.27533,53.946708 688.93151,215.77317 686.99157,374.35973 C 685.05133,532.97019 508.62788,666.38007 359.25152,665.10766 z "
       id="path2419"
       sodipodi:nodetypes="ccccccccccccsczcsssszs" />
    <g
       id="g3147"
       style="fill:#803300">
      <path
         sodipodi:nodetypes="cccc"
         id="path2170"
         d="M 393.39285,323.25504 C 369.82143,336.46933 369.64286,375.04076 371.78572,396.29075 C 376.96429,371.6479 391.25,340.93361 402.32143,336.11218 C 401.09723,326.97461 401.60714,324.68361 393.39285,323.25504 z "
         style="fill:#803300;fill-rule:evenodd;stroke:none;stroke-width:1px;stroke-linecap:butt;stroke-linejoin:miter;stroke-opacity:1" />
      <path
         sodipodi:nodetypes="cccc"
         id="path3143"
         d="M 401.65513,331.91576 C 383.44749,341.76994 383.30956,370.53347 384.9648,386.38004 C 388.96496,368.00334 399.9999,345.09905 408.55197,341.5036 C 407.60635,334.68952 408.00022,332.98108 401.65513,331.91576 z "
         style="fill:#803300;fill-rule:evenodd;stroke:none;stroke-width:1px;stroke-linecap:butt;stroke-linejoin:miter;stroke-opacity:1" />
      <path
         sodipodi:nodetypes="cccc"
         id="path3145"
         d="M 408.36068,339.41576 C 392.29856,346.1683 392.17688,365.87839 393.63707,376.73718 C 397.16587,364.14463 406.9005,348.44956 414.44483,345.98579 C 413.61064,341.31647 413.95809,340.14577 408.36068,339.41576 z "
         style="fill:#803300;fill-rule:evenodd;stroke:none;stroke-width:1px;stroke-linecap:butt;stroke-linejoin:miter;stroke-opacity:1" />
    </g>
    <g
       id="g3163"
       transform="translate(7.323606,-5.8083771)"
       style="fill:#803300">
      <path
         sodipodi:nodetypes="cccc"
         id="path3154"
         d="M 241.52777,301.91899 C 221.2396,314.40222 221.0859,350.83973 222.93029,370.91409 C 227.38753,347.63458 239.68339,318.61952 249.21269,314.06483 C 248.15901,305.43278 248.59789,303.26853 241.52777,301.91899 z "
         style="fill:#803300;fill-rule:evenodd;stroke:none;stroke-width:1px;stroke-linecap:butt;stroke-linejoin:miter;stroke-opacity:1" />
      <path
         sodipodi:nodetypes="cccc"
         id="path3156"
         d="M 231.21407,311.11073 C 215.54256,320.41974 215.42384,347.59196 216.84853,362.56184 C 220.29151,345.20181 229.78939,323.56467 237.15025,320.16813 C 236.33634,313.73103 236.67535,312.11711 231.21407,311.11073 z "
         style="fill:#803300;fill-rule:evenodd;stroke:none;stroke-width:1px;stroke-linecap:butt;stroke-linejoin:miter;stroke-opacity:1" />
      <path
         sodipodi:nodetypes="cccc"
         id="path3158"
         d="M 224.35869,320.21611 C 210.53386,326.59507 210.42913,345.21473 211.68593,355.47277 C 214.7232,343.57689 223.1019,328.75013 229.59539,326.42266 C 228.87739,322.01167 229.17644,320.90573 224.35869,320.21611 z "
         style="fill:#803300;fill-rule:evenodd;stroke:none;stroke-width:1px;stroke-linecap:butt;stroke-linejoin:miter;stroke-opacity:1" />
    </g>
    <path
       style="fill:none;fill-rule:evenodd;stroke:#000000;stroke-width:1px;stroke-linecap:butt;stroke-linejoin:miter;stroke-opacity:1"
       d="M 268.57143,90.933611 C 271.06028,92.603171 284.34248,88.076468 294.28571,88.076468 C 304.85458,88.076468 302.85714,93.242885 302.85714,102.36218 C 302.85714,108.94603 293.10333,114.3204 290,116.6479 C 282.88322,121.98548 306.93935,110.96753 315.71429,109.50504 C 325.5131,107.8719 327.15152,118.04184 325.71429,123.79075 C 323.94772,130.857 315.90725,137.97999 310,140.93361 C 309.76243,141.05239 304.85633,144.79137 304.28571,145.21933"
       id="path3168" />
    <path
       style="fill:none;fill-rule:evenodd;stroke:#000000;stroke-width:1px;stroke-linecap:butt;stroke-linejoin:miter;stroke-opacity:1"
       d="M 314.28571,66.647897 C 305.33131,71.1251 335.33131,63.599265 344.28571,68.076468 C 353.80331,72.835266 331.94615,77.947074 331.42857,78.076468 C 326.74346,79.247746 319.37956,92.672404 342.85714,80.933611 C 351.52942,76.597473 365.28277,80.003566 370,82.362183 C 376.65305,85.688706 358.80781,92.184897 352.85714,96.647897 C 342.75663,104.22328 353.49565,99.50504 365.71429,99.50504 C 376.74598,99.50504 388.56435,103.79783 377.14286,115.21933 C 374.24744,118.11474 358.5265,118.80199 355.71429,119.50504 C 351.56082,120.54341 375.34934,116.6479 382.85714,116.6479 C 394.52148,116.6479 408.91369,112.38202 397.14286,128.07647 C 391.77687,135.23112 374.52745,134.80175 367.14286,136.6479"
       id="path3170" />
    <path
       style="fill:none;fill-rule:evenodd;stroke:#000000;stroke-width:1px;stroke-linecap:butt;stroke-linejoin:miter;stroke-opacity:1"
       d="M 402.85714,56.647897 C 402.82125,56.695752 426.19579,58.196844 431.42857,59.50504 C 445.92605,63.129409 432.96837,69.449427 427.14286,72.362183 C 423.21609,74.325566 418.36197,73.588824 414.28571,75.219325 C 405.00095,78.933232 434.58429,72.793969 444.28571,75.219325 C 453.6662,77.564448 449.09033,87.557569 445.71429,90.933611 C 441.33949,95.308411 429.00849,95.219325 422.85714,95.219325 C 405.14706,95.219325 436.92058,96.94947 441.42857,98.076468 C 449.84816,100.18137 455.71429,107.2807 455.71429,115.21933 C 455.71429,122.64237 433.46302,123.79075 428.57143,123.79075 C 411.65768,123.79075 440.88778,123.79075 445.71429,123.79075 C 459.12093,123.79075 461.18676,125.68064 464.28571,138.07647 C 467.6621,151.58202 450.64588,152.36218 441.42857,152.36218 C 428.25444,152.36218 422.0098,150.08627 415.71429,143.79075"
       id="path3172" />
    <path
       style="fill:none;fill-rule:evenodd;stroke:#000000;stroke-width:1px;stroke-linecap:butt;stroke-linejoin:miter;stroke-opacity:1"
       d="M 494.28571,78.076468 C 493.05828,76.849029 511.92162,79.751565 517.14286,82.362183 C 527.40202,87.491766 525.38513,87.964511 524.28571,92.362183 C 523.51163,95.458522 504.39696,95.219325 501.42857,95.219325 C 484.69798,95.219325 494.95121,93.790754 505.71429,93.790754 C 517.40074,93.790754 522.40058,94.762761 530,102.36218 C 536.08526,108.44744 533.65038,119.30673 527.14286,120.93361 C 520.18578,122.67288 512.1217,122.36218 504.28571,122.36218 C 483.31461,122.36218 514.83269,122.36218 521.42857,122.36218 C 527.22188,122.36218 531.73455,142.15751 532.85714,146.6479 C 534.73342,154.153 523.59163,150.93361 514.28571,150.93361 C 502.72964,150.93361 490.39863,148.07647 511.42857,148.07647 C 533.93389,148.07647 528.28446,155.50001 531.42857,168.07647 C 534.12353,178.8563 528.10653,179.3123 520,180.93361 C 511.18179,182.69725 500.06545,180.96634 494.28571,178.07647 C 486.32891,174.09807 513.7096,178.92892 520,185.21933 C 528.10074,193.32007 532.729,197.16046 530,208.07647 C 528.4355,214.33446 508.92604,212.36218 502.85714,212.36218 C 494.57122,212.36218 486.46201,210.25276 481.42857,205.21933"
       id="path3174" />
    <path
       style="fill:none;fill-rule:evenodd;stroke:#000000;stroke-width:1px;stroke-linecap:butt;stroke-linejoin:miter;stroke-opacity:1"
       d="M 484.28571,220.93361 C 474.70257,220.93361 503.22369,227.01444 510,233.79075 C 519.18889,242.97964 513.04007,247.27072 505.71429,250.93361 C 498.96782,254.30684 483.58681,255.21933 475.71429,255.21933 C 475.69171,255.21933 483.06811,255.64125 487.14286,263.79075 C 490.54402,270.59307 492.32473,274.51823 494.28571,282.36218 C 496.03252,289.34939 474.73171,290.93361 471.42857,290.93361 C 461.02357,290.93361 455.49011,290.10724 448.57143,286.6479 C 439.05426,281.88931 451.62324,289.7646 455.71429,295.21933 C 459.61303,300.41765 458.90569,306.73943 457.14286,313.79075 C 456.27211,317.27375 436.57035,318.07647 432.85714,318.07647 C 414.2338,318.07647 427.72489,318.36749 438.57143,323.79075 C 448.00446,328.50727 437.70698,338.50869 432.85714,340.93361 C 426.86693,343.92872 415.57867,342.36218 408.57143,342.36218 C 402.55402,342.36218 405.31158,341.05824 401.42857,339.50504"
       id="path3176" />
    <path
       style="fill:none;fill-rule:evenodd;stroke:#000000;stroke-width:1px;stroke-linecap:butt;stroke-linejoin:miter;stroke-opacity:1"
       d="M 524.28571,236.6479 C 517.87923,236.6479 535.58906,244.71841 537.14286,250.93361 C 539.54165,260.52876 532.69891,267.40174 524.28571,269.50504 C 516.62384,271.42051 508.65974,271.31283 501.42857,269.50504 C 489.8618,266.61335 505.44755,270.37642 510,273.79075 C 516.18865,278.43224 512.48482,288.44879 508.57143,292.36218 C 503.68298,297.25063 493.32959,299.38693 487.14286,300.93361 C 483.41831,301.86475 479.55346,302.36218 475.71429,302.36218 C 470.92863,302.36218 478.56613,314.50769 474.28571,316.6479 C 468.73243,319.42454 461.73767,316.57062 455.71429,318.07647 C 447.64628,320.09347 457.43833,338.64302 450,342.36218 C 444.28268,345.22084 440.84291,345.21933 434.28571,345.21933"
       id="path3178" />
    <path
       style="fill:none;fill-rule:evenodd;stroke:#000000;stroke-width:1px;stroke-linecap:butt;stroke-linejoin:miter;stroke-opacity:1"
       d="M -284.28571,142.36218 C -284.71163,142.14922 -283.33333,142.36218 -284.28571,142.36218 z "
       id="path3182" />
  </g>
</svg>
